<?xml version="1.0" encoding="utf-8"?>
<!-- Generator: Adobe Illustrator 19.1.0, SVG Export Plug-In . SVG Version: 6.00 Build 0)  -->
<svg version="1.1" xmlns="http://www.w3.org/2000/svg" xmlns:xlink="http://www.w3.org/1999/xlink" x="0px" y="0px"
	 viewBox="0 0 61.9 67.3" style="enable-background:new 0 0 61.9 67.3;" xml:space="preserve">
<style type="text/css">
	.st0{display:none;}
	.st1{display:inline;fill:#631D1E;}
	.st2{fill:none;stroke:#FFFFFF;stroke-miterlimit:10;}
	.st3{fill:#FFFFFF;}
</style>
<g id="Calque_2" class="st0">
	<rect x="-14.9" y="-6" class="st1" width="82" height="90"/>
</g>
<g id="Calque_3">
	<line class="st2" x1="0.6" y1="65.8" x2="45.6" y2="0"/>
	<g>
		<g>
			<path id="Twitter__x28_alt_x29__1_" class="st3" d="M19.4,38.2c0.8,0.2,1.8,0.3,2.9,0.3c-1.9,0.6-2.8,1.2-3.5,2.3
				c1.3,1.5,3.8,3.1,7.6,1.8c-3.8,2.8-0.6,5.6,2.8,4.3c-4.5,7.4-12.9,10-19.4,6.1c18.2,15.9,45.7,0.3,46.1-19c3.4-0.7,5.1-2.4,6-4
				C60,31,57.1,31.3,55.5,31c3-1,4.8-2.8,5.2-4.9c-1,0.9-4.3,2.5-6.4,2.2c-0.2-0.4-0.4-0.8-0.6-1.2c-2.7-5-8.6-8.3-13.8-6.6
				c0.4-0.3,0.8-0.5,1.2-0.8c0.5-0.3,3.8-1.6,3-2.7c-0.7-1-4.4,1.8-5.1,2.2c0.9-0.6,2.5-1.7,2.4-2.9c-1.5,0.6-2.9,1.7-3.9,3
				c0.3-0.6,0.5-1.2,0.5-1.8c-3.6,3.6-4.8,9.6-5.7,15.3c-1.9-1.2-3.6-2-4.9-2.4c-0.7-0.2-1.4-0.4-2.2-0.6"/>
		</g>
	</g>
</g>
</svg>
