<?xml version="1.0" encoding="utf-8"?>
<!-- Generator: Adobe Illustrator 19.1.0, SVG Export Plug-In . SVG Version: 6.00 Build 0)  -->
<svg version="1.1" xmlns="http://www.w3.org/2000/svg" xmlns:xlink="http://www.w3.org/1999/xlink" x="0px" y="0px"
	 viewBox="0 0 61.9 67.3" style="enable-background:new 0 0 61.9 67.3;" xml:space="preserve">
<style type="text/css">
	.st0{display:none;}
	.st1{display:inline;fill:#631D1E;}
	.st2{fill:none;stroke:#FFFFFF;stroke-miterlimit:10;}
	.st3{fill:#FFFFFF;}
</style>
<g id="Calque_2" class="st0">
	<rect x="-14.9" y="-6" class="st1" width="82" height="90"/>
</g>
<g id="Calque_3">
	<line class="st2" x1="0.6" y1="65.8" x2="45.6" y2="0"/>
	<g>
		<g>
			<path id="Facebook_1_" class="st3" d="M31.5,27.8h-5.5v9.1h5.5V64h11.2V36.9h7.5c0,0,0.7-4.4,1-9.1c-1,0-8.5,0-8.5,0s0-5.3,0-6.2
				c0-0.9,1.2-2.2,2.4-2.2c1.2,0,3.8,0,6.1,0c0-1.2,0-5.5,0-9.5c-3.1,0-6.7,0-8.3,0c-1.8,0-4.5,0.6-4.5,0.6c-1.5,1.9-6,8.7-6.2,9.4
				C31.4,24,31.5,27.8,31.5,27.8z"/>
		</g>
	</g>
</g>
</svg>
