<?xml version="1.0" encoding="utf-8"?>
<!-- Generator: Adobe Illustrator 19.1.0, SVG Export Plug-In . SVG Version: 6.00 Build 0)  -->
<svg version="1.1" id="Layer_1" xmlns="http://www.w3.org/2000/svg" xmlns:xlink="http://www.w3.org/1999/xlink" x="0px" y="0px"
	 viewBox="0 0 371.3 151.3" style="enable-background:new 0 0 371.3 151.3;" xml:space="preserve">
<style type="text/css">
	.st0{fill:#FFFFFF;}
	.st1{fill-rule:evenodd;clip-rule:evenodd;fill:#FFFFFF;}
</style>
<g>
	<g>
		<path class="st0" d="M39.8,78.5l-5.4,9.3c21.4,13.9,34.4,33.5,38.3,41.1h1.6C65.5,105.5,51.5,88.9,39.8,78.5L39.8,78.5z"/>
		<path class="st0" d="M44.8,69.9c23,20.8,30.5,49.4,31.9,59h1.5c-0.9-12.7-6.3-48.4-27.3-69.4L44.8,69.9L44.8,69.9z"/>
		<path class="st0" d="M130.6,96.1L130.6,96.1c-13.6,6-30.2,16.8-43.4,32.8h1.5c1.2-1,4.2-3.3,5.9-4.6c13.9-9.7,28.1-15.5,39.8-18.6
			l15.1,26.3l-60.8,0v-3.1l-18.1,0v3.1H12.2l25.1-42.4l-2.9-1.7L6.2,135.3h64.4v-3.1h18.1v3.1l66.8,0c0,0-17.8-30.4-17.5-30.5
			c18.2-4.1,31.1-2.3,32.5-2.1l7.3-15.6C159.1,86.4,143.3,90.4,130.6,96.1L130.6,96.1z"/>
		<path class="st0" d="M121.6,76.4L81.3,6.4L57,48.7c6.2,6.6,23.1,28.9,23.5,80.1h1.8C83.6,76.3,72.2,51.1,65.5,41l15.8-27.9
			L119,78.6c-23.9,20.2-33.6,46-35,50.3h1.6c3.1-5.9,12.3-18.6,24.1-29.7c29.8-27.8,64.5-28.2,75.4-27.6l8.3-17.8
			C161.7,52.8,138.4,63.1,121.6,76.4L121.6,76.4z"/>
		<path class="st0" d="M219,113.3c-1.6-1.3-3.9-2-6.4-2c-5.1,0-10.2,3.3-12.1,7.6c-2.8,6.6,6.3,7.1,4.5,11.3
			c-0.7,1.7-2.6,2.8-4.8,2.8c-2.1,0-4.6-1.1-6-2.6l-2.7,4.4c1.6,1.5,3.9,2.4,7.5,2.4c5.6,0,10.1-3.7,11.8-7.7
			c3-7.1-6.1-7.5-4.5-11.2c0.7-1.7,2.8-2.8,4.7-2.8c1.9,0,4.2,1,5.3,2.2L219,113.3L219,113.3z"/>
		<path class="st1" d="M235.7,120.3c-1.9-0.4-3.3-0.6-5.4-0.6c-9,0-14.4,5.3-16.5,10.2c-1.8,4.2-0.6,7.2,2.8,7.2
			c1.7,0,3.5-0.6,5.6-1.9l-0.9,1.6h5L235.7,120.3L235.7,120.3z M224.1,131.9c-1.6,1-3.1,1.5-4.2,1.5c-1.5,0-1.9-1.2-1.1-3.2
			c0.9-2.1,3.8-6.9,9.8-6.2L224.1,131.9L224.1,131.9z"/>
		<path class="st1" d="M245.4,120h-5l-9.5,16.8h5L245.4,120L245.4,120z M246.5,112.8c-1.4,0-3.1,1.1-3.7,2.6c-0.6,1.4,0,2.6,1.5,2.6
			c1.4,0,3.1-1.1,3.7-2.6C248.6,113.9,248,112.8,246.5,112.8L246.5,112.8z"/>
		<path class="st1" d="M255,120h-5l-9.5,16.8h5l6.1-10.8c2.5-1.8,4.2-2.6,5.3-2.6c1.3,0,1,1.7,0.1,3.4l-5.7,10h5l5.8-10.4
			c1.9-3.4,2.3-6.7-1.6-6.7c-2,0-4,0.6-6.6,2.2L255,120L255,120z"/>
		<path class="st0" d="M278.6,116.5h-5.1l-2.1,3.5h-3.4l-2.2,3.7h3.4l-3.9,6.4c-2.1,3.5-2,7,2.1,7c1.5,0,2.8-0.3,4.7-1.1l1.9-4.4
			c-1.8,0.7-2.6,1-3.3,1c-1.4,0-1-1.6,0.1-3.5l3.3-5.4h3.7l2.2-3.7h-3.7L278.6,116.5L278.6,116.5z"/>
		<path class="st1" d="M293.8,129.1c3.5-5.4,2.3-9.4-2.9-9.4c-5.1,0-10.8,4.1-13,9.2c-2.1,4.9-0.2,8.2,4.9,8.2c1.7,0,4-0.4,6.4-1.2
			l2.7-4.2c-3.2,1.1-5.4,1.7-6.9,1.7c-2.4,0-3.4-1.6-2-4.3H293.8L293.8,129.1z M284.5,126.2c1.6-2.1,3.1-3.1,4.8-3.1
			c1.7,0,2.2,1.3,1.1,3.1H284.5L284.5,126.2z"/>
		<polygon class="st0" points="309.2,126 297.6,126 294.8,131.1 306.3,131.1 309.2,126 		"/>
		<polygon class="st0" points="335.1,111.6 320.6,111.6 306.3,136.8 311.7,136.8 317.8,126 325.7,126 328.1,121.8 320.2,121.8 
			323.6,115.8 332.7,115.8 335.1,111.6 		"/>
		<path class="st1" d="M345.5,127.7c2-4.8-0.2-7.9-5-7.9c-5.3,0-11.5,4.2-13.6,9.3c-1.9,4.5,0.3,8.1,5,8.1
			C337.3,137.1,343.2,133,345.5,127.7L345.5,127.7z M340.4,127.5c-1,2.3-3.8,5.6-6.7,5.6c-1.5,0-2.8-1.2-1.7-3.7
			c0.7-1.7,3.4-5.5,6.6-5.5C340.6,123.8,341.3,125.3,340.4,127.5L340.4,127.5z"/>
		<polygon class="st1" points="367.6,120 362.4,120 353.8,129.8 354.7,120 349.7,120 348.6,135.3 339.4,145.3 344.7,145.3 
			367.6,120 		"/>
		<path class="st1" d="M234.9,79.3h-5l-4.7,8.3c-0.7-0.1-1.5-0.2-2.4-0.2c-7,0-12.5,4.8-14.4,9.3c-2.1,4.9,0.3,8.1,6.3,8.1
			c1.8,0,3.7-0.2,6-0.6L234.9,79.3L234.9,79.3z M217.9,100.6c-0.6,0.1-1,0.2-1.4,0.2c-2.8,0-3.8-1.5-2.8-4c1.2-2.8,4.6-5.5,9.2-5
			L217.9,100.6L217.9,100.6z"/>
		<path class="st1" d="M244.5,96.8c3.5-5.4,2.3-9.4-2.9-9.4c-5.1,0-10.8,4.1-13,9.2c-2.1,5-0.2,8.2,4.9,8.2c1.7,0,4-0.4,6.4-1.2
			l2.7-4.2c-3.2,1.1-5.4,1.7-6.9,1.7c-2.4,0-3.4-1.6-2-4.3H244.5L244.5,96.8z M235.2,93.9c1.6-2.1,3.1-3.1,4.8-3.1
			c1.7,0,2.2,1.3,1.1,3.1H235.2L235.2,93.9z"/>
		<path class="st0" d="M253.5,47.6c-2.2-0.6-4.2-0.9-6.4-0.9c-9.7,0-18.9,5.9-22.5,14.3c-2.9,6.9,0.1,11.5,7.4,11.5c3,0,6-0.6,9.7-2
			l3.2-5.6c-4.5,2.1-7.5,3-10.4,3c-4.4,0-6.1-2.6-4.3-6.8c1.7-3.9,6.8-9.8,14.9-9.8c2.2,0,4,0.3,5.7,0.9L253.5,47.6L253.5,47.6z"/>
		<path class="st1" d="M258.5,53.5h2.7l9.2-6.4h-5.9L258.5,53.5L258.5,53.5z M263.6,64.5c3.5-5.4,2.3-9.4-2.9-9.4
			c-5.1,0-10.8,4.1-13,9.2c-2.1,4.9-0.2,8.2,4.9,8.2c1.7,0,4-0.4,6.4-1.2l2.7-4.2c-3.2,1.1-5.4,1.7-6.9,1.7c-2.4,0-3.4-1.6-2-4.3
			H263.6L263.6,64.5z M254.3,61.6c1.6-2.1,3.1-3.1,4.8-3.1c1.7,0,2.2,1.3,1.1,3.1H254.3L254.3,61.6z"/>
		<path class="st1" d="M287.7,55.4h-9.4c-4.8,0-8.8,3.3-10.1,6.3c-0.9,2.1-0.6,3.7,0.9,4.8c-1.3,0.3-1.8,0.5-2.5,0.9
			c-1,0.5-1.9,1.4-2.2,2.3c-0.5,1.2-0.1,2.4,1,3.1c-3.2,0.9-5,2.1-5.7,3.8c-0.8,1.8-0.2,4.1,6.2,4.1c6.8,0,9.8-2.7,11-5.5
			c2.7-6.4-8.2-4.5-7.4-6.4c0.3-0.7,1-0.9,3.4-0.9c4.8,0,8.3-3.1,9.6-6.1c0.4-1,0.5-1.6,0.5-2.7h2.7L287.7,55.4L287.7,55.4z
			 M278.1,61.2c-0.7,1.7-2.1,3.6-4.3,3.6c-1.4,0-2-0.8-1.3-2.3c1-2.4,2.5-3.7,4.3-3.7C278.2,58.8,278.7,59.7,278.1,61.2L278.1,61.2z
			 M268.2,73.8c2.7,0.7,4.2,0.8,3.6,2.1c-0.5,1.1-1.8,1.6-4.6,1.6c-2.6,0-3.5-0.6-3-1.7C264.7,74.8,265.8,74,268.2,73.8L268.2,73.8z
			"/>
		<path class="st1" d="M300.5,64.5c3.5-5.4,2.3-9.4-2.9-9.4c-5.1,0-10.8,4.1-13,9.2c-2.1,4.9-0.2,8.2,4.9,8.2c1.7,0,4-0.4,6.4-1.2
			l2.7-4.2c-3.2,1.1-5.4,1.7-6.9,1.7c-2.4,0-3.4-1.6-2-4.3H300.5L300.5,64.5z M291.3,61.6c1.6-2.1,3.1-3.1,4.8-3.1
			c1.7,0,2.2,1.3,1.1,3.1H291.3L291.3,61.6z"/>
		<path class="st1" d="M317.5,52.1h-5l-3.5,6.1c-4.6,2.8-7.1,6-7.3,6.6c-0.1,0.2,0,0.3,0.2,0.3c0.9,0,1.6-1.5,5.3-3.6l-10.7,19h5
			l4.8-8.5c0.8,0.2,1.3,0.3,2.1,0.3c5.9,0,12.4-4.5,14.8-10.1c1.9-4.4,0.2-7.3-4.2-7.3c-0.4,0-0.9,0-1.5,0.1c-0.5,0-1.1,0.1-1.7,0.2
			L317.5,52.1L317.5,52.1z M313.6,59c4.1-0.8,5.5,0.6,4.3,3.5c-1,2.4-3.8,5.9-8,5.9c-0.6,0-0.9-0.1-1.4-0.3L313.6,59L313.6,59z"/>
	</g>
</g>
</svg>
