<?xml version="1.0" encoding="utf-8"?>
<!-- Generator: Adobe Illustrator 19.1.0, SVG Export Plug-In . SVG Version: 6.00 Build 0)  -->
<svg version="1.1" xmlns="http://www.w3.org/2000/svg" xmlns:xlink="http://www.w3.org/1999/xlink" x="0px" y="0px"
	 viewBox="0 0 871.1 365.6" style="enable-background:new 0 0 871.1 365.6;" xml:space="preserve">
<style type="text/css">
	.st0{opacity:0.58;clip-path:url(#XMLID_5_);fill:url(#SVGID_1_);}
	.st1{opacity:0.52;clip-path:url(#XMLID_6_);fill:url(#SVGID_2_);}
	.st2{opacity:0.59;clip-path:url(#XMLID_7_);fill:url(#SVGID_3_);}
</style>
<g id="Calque_2">
</g>
<g id="Calque_1">
	<g>
		<defs>
			<path id="XMLID_1_" d="M199.5,81.5v284.1h-87.7V81.5H0V0h311.3v81.5H199.5z"/>
		</defs>
		<use xlink:href="#XMLID_1_"  style="overflow:visible;fill:#FFFFFF;"/>
		<clipPath id="XMLID_5_">
			<use xlink:href="#XMLID_1_"  style="overflow:visible;"/>
		</clipPath>
		<linearGradient id="SVGID_1_" gradientUnits="userSpaceOnUse" x1="153.407" y1="377.7204" x2="153.407" y2="81.4726">
			<stop  offset="0" style="stop-color:#FFFFFF"/>
			<stop  offset="8.851769e-02" style="stop-color:#F3F3F3"/>
			<stop  offset="0.2502" style="stop-color:#D2D2D2"/>
			<stop  offset="0.4669" style="stop-color:#9C9C9C"/>
			<stop  offset="0.7307" style="stop-color:#535353"/>
			<stop  offset="1" style="stop-color:#000000"/>
		</linearGradient>
		<rect x="100.5" y="81.5" class="st0" width="105.8" height="296.2"/>
	</g>
	<g>
		<defs>
			<path id="XMLID_2_" d="M356.7,0h87.7v365.6h-87.7V0z"/>
		</defs>
		<use xlink:href="#XMLID_2_"  style="overflow:visible;fill:#FFFFFF;"/>
		<clipPath id="XMLID_6_">
			<use xlink:href="#XMLID_2_"  style="overflow:visible;"/>
		</clipPath>
		<linearGradient id="SVGID_2_" gradientUnits="userSpaceOnUse" x1="400.2343" y1="-10.9474" x2="400.2343" y2="374.7075">
			<stop  offset="0" style="stop-color:#FFFFFF"/>
			<stop  offset="8.851769e-02" style="stop-color:#F3F3F3"/>
			<stop  offset="0.2502" style="stop-color:#D2D2D2"/>
			<stop  offset="0.4669" style="stop-color:#9C9C9C"/>
			<stop  offset="0.7307" style="stop-color:#535353"/>
			<stop  offset="1" style="stop-color:#000000"/>
		</linearGradient>
		<rect x="342.6" y="-10.9" class="st1" width="115.4" height="385.7"/>
	</g>
	<g>
		<defs>
			<path id="XMLID_3_" d="M590.7,365.6h-87.7V0h93l91.9,163.5h1.6L781.8,0h89.3v365.6h-87.7v-89.3c0,0,1-129.5,1-130l0,0
				c-0.5,0.5-19.3,33.4-37.1,64.8l-35.5,64.2h-49.1L627.2,212c-18.3-32.4-37.1-65.3-37.6-65.8l0,0"/>
		</defs>
		<use xlink:href="#XMLID_3_"  style="overflow:visible;fill:#FFFFFF;"/>
		<clipPath id="XMLID_7_">
			<use xlink:href="#XMLID_3_"  style="overflow:visible;"/>
		</clipPath>
		<linearGradient id="SVGID_3_" gradientUnits="userSpaceOnUse" x1="698.7652" y1="408.371" x2="698.7652" y2="-12.956">
			<stop  offset="0" style="stop-color:#FFFFFF"/>
			<stop  offset="8.851769e-02" style="stop-color:#F3F3F3"/>
			<stop  offset="0.2502" style="stop-color:#D2D2D2"/>
			<stop  offset="0.4669" style="stop-color:#9C9C9C"/>
			<stop  offset="0.7307" style="stop-color:#535353"/>
			<stop  offset="1" style="stop-color:#000000"/>
		</linearGradient>
		<polygon class="st2" points="705.6,286.4 871.1,-8.4 920.5,374.2 477,408.4 499.2,-13 668.5,286.8 		"/>
	</g>
</g>
</svg>
